# xmcd
#
# Track frame offsets:
#	150
#	14442
#	28033
#	40178
#	55993
#	73730
#	91357
#	108557
#	127714
#	142678
#	152689
#	169879
#
# Disc length: 2554 seconds
#
# Revision: 6
# Processed by: cddbd v1.5.2PL0 Copyright (c) Steve Scherf et al.
# Submitted via: EasyCDDAExtractor 10.2.0.1
#
DISCID=9809f80c
DTITLE=Van Morrison - His Band And The Street Choir
DYEAR=1970
DGENRE=Blues
TTITLE0=Domino
TTITLE1=Crazy Face
TTITLE2=Give Me A Kiss
TTITLE3=I've Been Working
TTITLE4=Call Me Up In Dreamland
TTITLE5=I'll Be Your Lover, Too
TTITLE6=Blue Money
TTITLE7=Virgo Clowns
TTITLE8=Gypsy Queen
TTITLE9=Sweet Jannie
TTITLE10=If I Ever Needed Someone
TTITLE11=Street Choir
EXTD=All compositions by Van Morrison.\nRecorded by Elliott Scheiner, 1970-06/
EXTD=09.\nVan Morrison: vocals, guitar, harmonica, tenor sax (tracks 2,5]\nDah
EXTD=aud Elias Shaar: drums, percussion, bass clarinet, backing vocals\nJack S
EXTD=choer: alto sax, baritone sax, soprano sax, piano\nKeith Johnson: trumpet
EXTD=, organ\nJohn Platania: lead and rhythm guitars, mandolin\nJohn Klingberg: 
EXTD=bass\nAlan Hand: piano, organ\nThe Street Choir: Ellen Schoer, Martha Vel
EXTD=ez, Janet Planet, David Shaw, Andy Robinson, Larry Goldsmith\nEmily Houst
EXTD=on, Judy Clay, Jackie Verdell: backing vocals (11]\nProduced by Van Morri
EXTD=son.\nOriginally released as Warner Bros. LP WS 1884 (1970-11-15).\nCD: W
EXTD=arner Bros. 1884-2 (1990-10-25), UPC 075992718820.
EXTT0=
EXTT1=
EXTT2=
EXTT3=
EXTT4=
EXTT5=
EXTT6=
EXTT7=
EXTT8=
EXTT9=
EXTT10=
EXTT11=
PLAYORDER=
